HIERARCHY
ROOT newVegas:Hips
{
	OFFSET 0.000000 96.479958 0.000000
	CHANNELS 6 Xposition Yposition Zposition Xrotation Yrotation Zrotation
	JOINT newVegas:Pelvis
	{
		OFFSET 0.000000 0.000000 0.000000
		CHANNELS 3 Xrotation Yrotation Zrotation
		JOINT newVegas:LeftUpLeg
		{
			OFFSET 18.735201 -5.666702 -4.541200
			CHANNELS 3 Xrotation Yrotation Zrotation
			JOINT newVegas:LeftLeg
			{
				OFFSET -0.021200 -31.938179 0.493100
				CHANNELS 3 Xrotation Yrotation Zrotation
				JOINT newVegas:LeftFoot
				{
					OFFSET 0.021200 -31.938179 -4.336299
					CHANNELS 3 Xrotation Yrotation Zrotation
					JOINT newVegas:LeftToeBase
					{
						OFFSET 0.943001 -26.722000 15.023500
						CHANNELS 3 Xrotation Yrotation Zrotation
						End Site
						{
							OFFSET 0.000000 30.670183 0.000000
						}
					}
				}
				JOINT newVegas:Left_PantLeg
				{
					OFFSET 0.663870 -9.044666 -1.108900
					CHANNELS 3 Xrotation Yrotation Zrotation
					End Site
					{
						OFFSET 1.415995 20.635357 0.000000
					}
				}
			}
		}
		JOINT newVegas:RightUpLeg
		{
			OFFSET -18.735201 -5.666702 -4.541200
			CHANNELS 3 Xrotation Yrotation Zrotation
			JOINT newVegas:RightLeg
			{
				OFFSET 0.018946 -31.938133 0.493100
				CHANNELS 3 Xrotation Yrotation Zrotation
				JOINT newVegas:RightFoot
				{
					OFFSET -0.018946 -31.938126 -4.336299
					CHANNELS 3 Xrotation Yrotation Zrotation
					JOINT newVegas:RightToeBase
					{
						OFFSET -0.943001 -26.722004 15.023500
						CHANNELS 3 Xrotation Yrotation Zrotation
						End Site
						{
							OFFSET 0.000000 30.670187 0.000000
						}
					}
				}
				JOINT newVegas:Right_PantLeg
				{
					OFFSET -0.661674 -9.044716 -1.108900
					CHANNELS 3 Xrotation Yrotation Zrotation
					End Site
					{
						OFFSET -1.415958 20.635269 0.000000
					}
				}
			}
		}
	}
	JOINT newVegas:Spine
	{
		OFFSET 0.000000 10.199997 -0.299500
		CHANNELS 3 Xrotation Yrotation Zrotation
		JOINT newVegas:Spine1
		{
			OFFSET 0.000000 11.900002 -1.516600
			CHANNELS 3 Xrotation Yrotation Zrotation
			JOINT newVegas:Spine2
			{
				OFFSET 0.000000 13.600006 -2.842500
				CHANNELS 3 Xrotation Yrotation Zrotation
				JOINT newVegas:Neck
				{
					OFFSET 0.000000 9.624100 -2.890100
					CHANNELS 3 Xrotation Yrotation Zrotation
					JOINT newVegas:Head
					{
						OFFSET 0.000000 14.068802 -1.351900
						CHANNELS 3 Xrotation Yrotation Zrotation
						JOINT newVegas:Hair_Back
						{
							OFFSET 0.000000 3.231903 -17.524799
							CHANNELS 3 Xrotation Yrotation Zrotation
							End Site
							{
								OFFSET 0.000000 19.849884 0.000000
							}
						}
						JOINT newVegas:Hair_Front
						{
							OFFSET 0.000000 31.260406 4.573800
							CHANNELS 3 Xrotation Yrotation Zrotation
							JOINT newVegas:Hair_Front1
							{
								OFFSET 0.000000 2.284103 11.993300
								CHANNELS 3 Xrotation Yrotation Zrotation
								JOINT newVegas:Hair_Front2
								{
									OFFSET 0.000000 2.284103 11.993300
									CHANNELS 3 Xrotation Yrotation Zrotation
									End Site
									{
										OFFSET 0.000000 12.208862 0.000000
									}
								}
							}
						}
						JOINT newVegas:Jowel
						{
							OFFSET 0.000000 -7.458206 6.864100
							CHANNELS 3 Xrotation Yrotation Zrotation
							End Site
							{
								OFFSET 0.000000 19.849884 0.000000
							}
						}
					}
				}
				JOINT newVegas:LeftShoulder
				{
					OFFSET 15.263000 10.923401 -0.547700
					CHANNELS 3 Xrotation Yrotation Zrotation
					JOINT newVegas:LeftArm
					{
						OFFSET 25.438599 -2.830597 -13.032500
						CHANNELS 3 Xrotation Yrotation Zrotation
						JOINT newVegas:LeftForeArm
						{
							OFFSET 29.960503 0.000000 0.000000
							CHANNELS 3 Xrotation Yrotation Zrotation
							JOINT newVegas:LeftHand
							{
								OFFSET 27.849251 0.000000 0.000000
								CHANNELS 3 Xrotation Yrotation Zrotation
								JOINT newVegas:LeftHandThumb1
								{
									OFFSET 4.487587 -3.305161 6.305391
									CHANNELS 3 Xrotation Yrotation Zrotation
									JOINT newVegas:LeftHandThumb2
									{
										OFFSET 5.480453 -3.164139 3.164143
										CHANNELS 3 Xrotation Yrotation Zrotation
										JOINT newVegas:LeftHandThumb3
										{
											OFFSET 5.159721 -2.978973 2.978967
											CHANNELS 3 Xrotation Yrotation Zrotation
											End Site
											{
												OFFSET 2.494507 5.926697 1.738678
											}
										}
									}
								}
								JOINT newVegas:LeftHandIndex1
								{
									OFFSET 18.578728 -0.527832 5.208049
									CHANNELS 3 Xrotation Yrotation Zrotation
									JOINT newVegas:LeftHandIndex2
									{
										OFFSET 3.192009 0.000000 0.000000
										CHANNELS 3 Xrotation Yrotation Zrotation
										JOINT newVegas:LeftHandIndex3
										{
											OFFSET 3.835129 0.000000 0.000000
											CHANNELS 3 Xrotation Yrotation Zrotation
											End Site
											{
												OFFSET -0.034599 3.816971 0.371180
											}
										}
									}
								}
								JOINT newVegas:LeftHandMiddle1
								{
									OFFSET 18.476105 0.000000 0.000000
									CHANNELS 3 Xrotation Yrotation Zrotation
									JOINT newVegas:LeftHandMiddle2
									{
										OFFSET 3.324875 0.000000 0.000000
										CHANNELS 3 Xrotation Yrotation Zrotation
										JOINT newVegas:LeftHandMiddle3
										{
											OFFSET 4.596550 0.000000 0.000000
											CHANNELS 3 Xrotation Yrotation Zrotation
											End Site
											{
												OFFSET 0.057701 4.578827 0.399218
											}
										}
									}
								}
								JOINT newVegas:LeftHandRing1
								{
									OFFSET 17.732719 0.121887 -4.201567
									CHANNELS 3 Xrotation Yrotation Zrotation
									JOINT newVegas:LeftHandRing2
									{
										OFFSET 2.733170 0.000000 0.000000
										CHANNELS 3 Xrotation Yrotation Zrotation
										JOINT newVegas:LeftHandRing3
										{
											OFFSET 3.178268 0.000000 0.000000
											CHANNELS 3 Xrotation Yrotation Zrotation
											End Site
											{
												OFFSET 0.119102 3.170624 0.185394
											}
										}
									}
								}
								JOINT newVegas:LeftHandPinky1
								{
									OFFSET 15.989624 -0.606689 -7.535461
									CHANNELS 3 Xrotation Yrotation Zrotation
									JOINT newVegas:LeftHandPinky2
									{
										OFFSET 2.538986 0.000000 0.000000
										CHANNELS 3 Xrotation Yrotation Zrotation
										JOINT newVegas:LeftHandPinky3
										{
											OFFSET 2.593102 0.000000 0.000000
											CHANNELS 3 Xrotation Yrotation Zrotation
											End Site
											{
												OFFSET -0.150902 2.584198 0.152708
											}
										}
									}
								}
							}
							JOINT newVegas:Left_Sleeve
							{
								OFFSET 0.267448 -0.649796 0.577675
								CHANNELS 3 Xrotation Yrotation Zrotation
								End Site
								{
									OFFSET 0.000000 15.991241 0.000000
								}
							}
							JOINT newVegas:Left_CapeC
							{
								OFFSET 15.715958 -8.608795 -6.935905
								CHANNELS 3 Xrotation Yrotation Zrotation
								JOINT newVegas:Left_CapeC1
								{
									OFFSET 0.000000 -8.688499 0.000000
									CHANNELS 3 Xrotation Yrotation Zrotation
									End Site
									{
										OFFSET 0.000000 8.688499 0.000000
									}
								}
							}
						}
						JOINT newVegas:Left_CapeB
						{
							OFFSET 26.118385 -8.608795 -7.079235
							CHANNELS 3 Xrotation Yrotation Zrotation
							JOINT newVegas:Left_CapeB1
							{
								OFFSET 0.000000 -8.688499 0.000000
								CHANNELS 3 Xrotation Yrotation Zrotation
								End Site
								{
									OFFSET 0.000000 8.688499 0.000000
								}
							}
						}
						JOINT newVegas:Left_CapeA
						{
							OFFSET 5.115639 -8.608795 -10.395809
							CHANNELS 3 Xrotation Yrotation Zrotation
							JOINT newVegas:Left_CapeA1
							{
								OFFSET 0.000000 -8.688499 0.000000
								CHANNELS 3 Xrotation Yrotation Zrotation
								End Site
								{
									OFFSET 0.000000 8.688499 0.000000
								}
							}
						}
					}
				}
				JOINT newVegas:RightShoulder
				{
					OFFSET -15.263000 10.923401 -0.547700
					CHANNELS 3 Xrotation Yrotation Zrotation
					JOINT newVegas:RightArm
					{
						OFFSET -25.438599 -2.830597 -13.032500
						CHANNELS 3 Xrotation Yrotation Zrotation
						JOINT newVegas:RightForeArm
						{
							OFFSET -29.960503 0.000000 0.000000
							CHANNELS 3 Xrotation Yrotation Zrotation
							JOINT newVegas:RightHand
							{
								OFFSET -27.849251 0.000000 0.000000
								CHANNELS 3 Xrotation Yrotation Zrotation
								JOINT newVegas:RightHandThumb1
								{
									OFFSET -4.487587 -3.305161 6.305391
									CHANNELS 3 Xrotation Yrotation Zrotation
									JOINT newVegas:RightHandThumb2
									{
										OFFSET -5.480453 -3.164139 3.164143
										CHANNELS 3 Xrotation Yrotation Zrotation
										JOINT newVegas:RightHandThumb3
										{
											OFFSET -5.159721 -2.978973 2.978967
											CHANNELS 3 Xrotation Yrotation Zrotation
											End Site
											{
												OFFSET -2.494507 5.926697 1.738678
											}
										}
									}
								}
								JOINT newVegas:RightHandIndex1
								{
									OFFSET -18.578728 -0.527832 5.208049
									CHANNELS 3 Xrotation Yrotation Zrotation
									JOINT newVegas:RightHandIndex2
									{
										OFFSET -3.192009 0.000000 0.000000
										CHANNELS 3 Xrotation Yrotation Zrotation
										JOINT newVegas:RightHandIndex3
										{
											OFFSET -3.835129 0.000000 0.000000
											CHANNELS 3 Xrotation Yrotation Zrotation
											End Site
											{
												OFFSET 0.034599 3.816971 0.371180
											}
										}
									}
								}
								JOINT newVegas:RightHandMiddle1
								{
									OFFSET -18.476105 0.000000 0.000000
									CHANNELS 3 Xrotation Yrotation Zrotation
									JOINT newVegas:RightHandMiddle2
									{
										OFFSET -3.324875 0.000000 0.000000
										CHANNELS 3 Xrotation Yrotation Zrotation
										JOINT newVegas:RightHandMiddle3
										{
											OFFSET -4.596550 0.000000 0.000000
											CHANNELS 3 Xrotation Yrotation Zrotation
											End Site
											{
												OFFSET -0.057701 4.578827 0.399218
											}
										}
									}
								}
								JOINT newVegas:RightHandRing1
								{
									OFFSET -17.732719 0.121887 -4.201567
									CHANNELS 3 Xrotation Yrotation Zrotation
									JOINT newVegas:RightHandRing2
									{
										OFFSET -2.733170 0.000000 0.000000
										CHANNELS 3 Xrotation Yrotation Zrotation
										JOINT newVegas:RightHandRing3
										{
											OFFSET -3.178268 0.000000 0.000000
											CHANNELS 3 Xrotation Yrotation Zrotation
											End Site
											{
												OFFSET -0.119102 3.170624 0.185394
											}
										}
									}
								}
								JOINT newVegas:RightHandPinky1
								{
									OFFSET -15.989624 -0.606689 -7.535461
									CHANNELS 3 Xrotation Yrotation Zrotation
									JOINT newVegas:RightHandPinky2
									{
										OFFSET -2.538986 0.000000 0.000000
										CHANNELS 3 Xrotation Yrotation Zrotation
										JOINT newVegas:RightHandPinky3
										{
											OFFSET -2.593102 0.000000 0.000000
											CHANNELS 3 Xrotation Yrotation Zrotation
											End Site
											{
												OFFSET 0.150902 2.584198 0.152708
											}
										}
									}
								}
							}
							JOINT newVegas:Right_CapeC
							{
								OFFSET -15.715958 -8.608795 -6.935905
								CHANNELS 3 Xrotation Yrotation Zrotation
								JOINT newVegas:Right_CapeC1
								{
									OFFSET 0.000000 -8.688499 0.000000
									CHANNELS 3 Xrotation Yrotation Zrotation
									End Site
									{
										OFFSET 0.000000 8.688499 0.000000
									}
								}
							}
							JOINT newVegas:Right_Sleeve
							{
								OFFSET -0.267448 -0.649994 0.577675
								CHANNELS 3 Xrotation Yrotation Zrotation
								End Site
								{
									OFFSET 0.000000 15.991302 0.000000
								}
							}
						}
						JOINT newVegas:Right_CapeA
						{
							OFFSET -5.115540 -8.608795 -10.395824
							CHANNELS 3 Xrotation Yrotation Zrotation
							JOINT newVegas:Right_CapeA1
							{
								OFFSET 0.000000 -8.688499 0.000000
								CHANNELS 3 Xrotation Yrotation Zrotation
								End Site
								{
									OFFSET 0.000000 8.688499 0.000000
								}
							}
						}
						JOINT newVegas:Right_CapeB
						{
							OFFSET -26.118187 -8.608795 -7.079266
							CHANNELS 3 Xrotation Yrotation Zrotation
							JOINT newVegas:Right_CapeB1
							{
								OFFSET 0.000000 -8.688499 0.000000
								CHANNELS 3 Xrotation Yrotation Zrotation
								End Site
								{
									OFFSET 0.000000 8.688499 0.000000
								}
							}
						}
					}
				}
				JOINT newVegas:Left_Collar
				{
					OFFSET 18.625099 8.655502 8.828100
					CHANNELS 3 Xrotation Yrotation Zrotation
					JOINT newVegas:Left_Collar1
					{
						OFFSET 14.783401 10.540405 -1.259500
						CHANNELS 3 Xrotation Yrotation Zrotation
						End Site
						{
							OFFSET 0.000000 18.199875 0.000000
						}
					}
				}
				JOINT newVegas:Collar_Back
				{
					OFFSET 0.000000 15.630707 -20.132601
					CHANNELS 3 Xrotation Yrotation Zrotation
					End Site
					{
						OFFSET 0.000000 22.523010 0.000000
					}
				}
				JOINT newVegas:Left_Peck
				{
					OFFSET 17.239599 -5.132599 25.482599
					CHANNELS 3 Xrotation Yrotation Zrotation
					End Site
					{
						OFFSET 0.000000 22.523010 0.000000
					}
				}
				JOINT newVegas:Right_Peck
				{
					OFFSET -17.239599 -5.132202 25.482599
					CHANNELS 3 Xrotation Yrotation Zrotation
					End Site
					{
						OFFSET 0.000000 22.523010 0.000000
					}
				}
				JOINT newVegas:Right_Collar
				{
					OFFSET -18.625099 8.655792 8.828100
					CHANNELS 3 Xrotation Yrotation Zrotation
					JOINT newVegas:Right_Collar1
					{
						OFFSET -14.783401 10.539993 -1.259500
						CHANNELS 3 Xrotation Yrotation Zrotation
						End Site
						{
							OFFSET 0.000000 18.199631 0.000000
						}
					}
				}
			}
		}
		JOINT newVegas:Belly
		{
			OFFSET 0.000000 -6.540398 9.014299
			CHANNELS 3 Xrotation Yrotation Zrotation
			End Site
			{
				OFFSET 0.000000 11.566666 0.000000
			}
		}
	}
	JOINT newVegas:ElvisFacialAnim_Joint
	{
		OFFSET 1.000000 -95.330101 -8.825800
		CHANNELS 3 Xrotation Yrotation Zrotation
		End Site
		{
			OFFSET 0.000000 35.315800 0.000000
		}
	}
}
MOTION
Frames: 4
Frame Time: 0.033333
0.645884 89.021835 4.323084 -1.491516 5.546741 2.673881 0.000000 -0.000000 -0.000000 -26.927056 -8.335847 12.964717 27.907654 -0.958834 -1.109037 0.113709 -2.774250 -16.798621 0.000000 0.000000 -0.000000 0.000000 -0.000000 -0.000000 -18.976880 -11.358143 -22.680454 44.807950 2.116151 1.788254 -22.736846 -9.823230 12.601334 0.000000 -0.000000 -0.000000 0.000001 0.000001 0.000000 5.548596 -0.029654 -0.187651 11.097182 0.009757 -0.734756 11.097186 0.009758 -0.734754 -2.094208 -0.354142 -0.652394 -2.094217 -0.354141 -0.652402 0.000002 -0.000000 0.000000 -2.094199 -0.354164 -0.652390 -2.094202 -0.354119 -0.652398 0.000001 0.000000 0.000000 0.000002 -0.000000 0.000000 9.458498 -6.444348 -14.996464 -9.681610 10.606879 -35.776305 0.002049 -55.259294 0.168630 23.869040 -12.513385 16.449906 7.350854 -14.484214 -10.934826 -1.067061 0.182851 1.946091 -0.000003 0.000000 -0.000003 5.776124 -9.584526 -10.641325 0.033761 0.666527 -10.636471 0.000002 0.000003 -0.000003 1.641879 7.127210 -4.239645 -0.187960 -0.789350 -15.969051 0.000001 0.000000 0.000004 1.677305 11.039960 -8.046060 -0.183066 -2.876870 -23.912127 -0.000000 -0.000001 -0.000001 0.734582 28.047564 -16.218754 -0.849526 -6.142196 -29.148259 0.000004 -0.000003 0.000001 0.000002 0.000000 -0.000004 0.000002 0.000000 -0.000004 0.000001 0.000000 -0.000005 -0.000000 -0.000003 -0.000003 -0.000001 -0.000003 -0.000006 -0.000000 -0.000003 -0.000003 -0.000000 -0.000002 -0.000002 -8.748786 -25.656014 -2.247840 -12.629126 6.268369 62.693699 -0.210221 114.391100 0.221649 -38.068923 18.047002 -8.750685 28.820181 6.808709 -14.431030 0.073716 -2.141544 -1.907846 -0.000000 -0.000005 -0.000003 -0.338070 8.930299 13.236827 0.191790 -1.297618 21.915354 -0.000003 0.000004 0.000002 -5.019950 6.557969 31.510634 -4.002602 3.019756 97.316201 -0.000001 -0.000001 -0.000002 -10.851454 5.502608 37.634858 -5.804112 6.639856 86.643477 0.000001 -0.000003 0.000001 -2.774540 5.215329 41.351772 -0.757814 11.630475 46.251200 0.000003 0.000005 -0.000000 0.000001 -0.000001 0.000001 -0.000002 -0.000001 0.000000 0.000001 -0.000002 0.000001 0.000000 0.000000 -0.000001 -0.000000 0.000000 -0.000000 0.000000 0.000000 -0.000001 0.000000 0.000000 0.000002 -0.000001 0.000000 -0.000000 -0.000001 0.000000 -0.000000 -0.000001 0.000000 -0.000000 -0.000001 0.000000 -0.000000 -0.000001 0.000000 -0.000000 -0.000001 0.000000 -0.000000 -0.000001 0.000000 -0.000000 -0.000001 0.000000 -0.000000 0.000000 -0.000000 -0.000000 
0.639760 88.959335 4.326142 -1.558988 5.633939 2.733134 -0.000000 -0.000000 -0.000000 -27.188715 -7.974322 12.928389 28.330315 -0.960702 -1.123658 -0.200734 -3.216462 -16.382178 -0.000000 -0.000000 0.000000 0.000000 0.000000 -0.000001 -18.929716 -11.244509 -22.779880 45.045897 2.137412 1.799311 -23.007508 -9.881261 12.793809 -0.000000 -0.000000 0.000000 -0.000002 -0.000001 -0.000000 5.545943 -0.040831 -0.207578 11.091756 -0.011869 -0.765494 11.091748 -0.011869 -0.765494 -2.090396 -0.367823 -0.635438 -2.090412 -0.367820 -0.635441 0.000001 0.000000 -0.000000 -2.090404 -0.367823 -0.635438 -2.090322 -0.367817 -0.635440 -0.000002 0.000000 0.000000 0.000001 0.000000 -0.000000 9.434967 -6.456020 -15.025468 -10.362375 10.775220 -35.563815 0.004696 -55.056553 0.170826 23.580496 -12.584768 15.534319 7.336970 -14.365980 -10.856585 -1.063215 0.181882 1.941151 -0.000001 0.000003 -0.000004 5.743332 -9.529069 -10.859374 0.034668 0.669697 -10.835119 -0.000002 -0.000001 0.000003 1.610677 7.073021 -4.624227 -0.190872 -0.799493 -16.098298 -0.000001 0.000001 0.000002 1.646136 10.965555 -8.414141 -0.187512 -2.883064 -24.010104 0.000001 0.000001 -0.000000 0.791279 27.893927 -16.597896 -0.856634 -6.154630 -29.271401 0.000006 -0.000003 -0.000001 0.000002 0.000004 0.000000 0.000002 0.000004 0.000000 0.000001 0.000004 -0.000000 -0.000002 -0.000003 0.000001 -0.000002 -0.000003 -0.000000 -0.000002 -0.000003 0.000001 -0.000003 -0.000003 0.000002 -8.723370 -25.579808 -2.208633 -12.608211 6.254124 62.658591 -0.206837 114.599468 0.219075 -38.029762 18.163674 -9.005692 28.194041 6.787602 -14.105561 -0.081004 -2.267359 -1.950137 -0.000001 -0.000001 0.000001 -0.338069 8.930302 13.236831 0.191801 -1.297627 21.915369 0.000000 0.000000 0.000000 -5.023702 6.544749 31.522395 -4.007134 3.019195 97.390151 0.000001 0.000002 -0.000003 -10.851455 5.502610 37.634858 -5.812095 6.640298 86.717803 0.000003 -0.000003 -0.000002 -2.772021 5.212426 41.329946 -0.751801 11.624710 46.202265 0.000003 -0.000000 -0.000001 -0.000002 0.000000 -0.000000 -0.000002 0.000001 -0.000001 -0.000002 -0.000000 -0.000000 0.000001 -0.000001 -0.000001 0.000001 0.000000 -0.000001 0.000001 -0.000001 -0.000001 0.000001 -0.000000 0.000001 -0.000001 -0.000000 0.000000 -0.000001 -0.000000 0.000000 -0.000001 -0.000000 0.000000 -0.000001 -0.000000 0.000000 -0.000001 -0.000000 0.000000 -0.000001 -0.000000 0.000000 -0.000001 -0.000000 0.000000 -0.000000 -0.000001 -0.000000 -0.000000 -0.000000 -0.000000 
0.670352 88.836372 4.343197 -1.689970 5.728475 2.825472 0.000000 -0.000000 0.000000 -27.612264 -7.747445 12.715262 29.296061 -0.970857 -1.157928 -0.876263 -3.483493 -15.700754 -0.000000 -0.000000 -0.000000 0.000000 0.000000 -0.000000 -18.912188 -11.122131 -23.083625 45.452494 2.180266 1.819001 -23.345418 -9.807491 13.195314 -0.000000 -0.000001 -0.000000 0.000001 -0.000002 0.000000 5.532088 -0.064826 -0.238374 11.063744 -0.057828 -0.808223 11.063742 -0.057829 -0.808223 -2.079131 -0.393033 -0.604092 -2.079141 -0.393034 -0.604091 -0.000002 0.000000 -0.000000 -2.079213 -0.393034 -0.604091 -2.079054 -0.393033 -0.604091 -0.000002 0.000000 -0.000000 -0.000002 0.000000 -0.000000 9.369618 -6.481816 -15.081003 -11.267091 10.455566 -34.987545 0.006036 -54.413440 0.171959 23.271993 -12.496495 14.460445 7.295584 -14.029365 -10.631424 -1.052439 0.179164 1.927138 0.000002 0.000000 -0.000004 5.652948 -9.368483 -11.475443 0.037355 0.678641 -11.396474 -0.000002 -0.000000 -0.000002 1.520171 6.923570 -5.711321 -0.199244 -0.828216 -16.463674 0.000000 0.000000 0.000003 1.552121 10.758331 -9.453795 -0.200128 -2.900409 -24.286891 0.000001 0.000001 -0.000002 0.939407 27.455361 -17.663711 -0.876882 -6.189653 -29.619409 0.000004 -0.000002 -0.000000 -0.000001 -0.000001 -0.000000 -0.000001 -0.000001 -0.000000 -0.000002 -0.000001 -0.000001 -0.000001 -0.000001 0.000001 -0.000001 -0.000002 -0.000002 -0.000001 -0.000001 0.000001 -0.000001 -0.000001 0.000002 -8.656459 -25.338789 -2.074588 -12.557337 6.141228 62.480030 -0.199403 115.045480 0.213146 -37.951475 18.563339 -9.564878 26.632864 6.722445 -13.286528 -0.468767 -2.580001 -2.057934 -0.000002 -0.000002 -0.000006 -0.338074 8.930306 13.236821 0.191790 -1.297620 21.915367 -0.000002 0.000002 -0.000001 -5.034439 6.507087 31.555938 -4.020062 3.017466 97.601170 0.000002 -0.000000 -0.000001 -10.851455 5.502608 37.634858 -5.834878 6.641571 86.929976 0.000002 -0.000001 -0.000000 -2.764870 5.204092 41.267583 -0.734625 11.608259 46.062611 -0.000000 -0.000000 -0.000002 0.000001 0.000001 -0.000001 -0.000001 0.000001 -0.000001 0.000001 0.000001 -0.000001 0.000000 0.000001 0.000001 0.000000 0.000001 0.000001 0.000000 0.000001 0.000001 0.000001 0.000001 0.000003 0.000000 0.000000 -0.000000 0.000000 0.000000 -0.000000 0.000000 0.000000 -0.000000 0.000000 0.000000 -0.000000 0.000000 0.000000 -0.000000 0.000000 0.000000 -0.000000 0.000000 0.000000 -0.000000 -0.000000 0.000000 0.000000 0.000000 -0.000000 0.000000 
0.767980 88.679314 4.376929 -1.879934 5.766264 3.006966 -0.000000 0.000000 0.000000 -28.029329 -7.677968 12.332321 30.412660 -1.051558 -1.209592 -1.477111 -3.427206 -15.066207 0.000000 -0.000000 -0.000000 -0.000000 0.000000 0.000001 -18.803330 -10.617246 -23.441100 45.993053 2.234516 1.844097 -23.735985 -10.029515 13.675707 -0.000000 -0.000000 -0.000000 0.000001 0.000000 -0.000000 5.513801 -0.095285 -0.284632 11.026785 -0.117105 -0.878461 11.026783 -0.117105 -0.878460 -2.065479 -0.427494 -0.570322 -2.065483 -0.427493 -0.570329 0.000001 -0.000001 0.000000 -2.065406 -0.427514 -0.570317 -2.065473 -0.427478 -0.570324 0.000001 0.000000 -0.000000 0.000001 -0.000001 0.000000 9.252372 -6.550138 -15.266730 -12.188076 9.277454 -33.850219 0.004174 -53.096238 0.170510 22.531503 -12.146847 13.410513 7.226778 -13.502002 -10.273287 -1.035755 0.175046 1.905281 0.000003 0.000000 -0.000004 5.519800 -9.111049 -12.432058 0.041691 0.692440 -12.268729 -0.000003 0.000001 -0.000003 1.373088 6.702170 -7.401437 -0.212598 -0.872690 -17.031394 0.000002 -0.000001 -0.000002 1.391115 10.445477 -11.068263 -0.219952 -2.927117 -24.717036 -0.000000 -0.000001 0.000000 1.135322 26.765636 -19.304770 -0.908742 -6.243859 -30.160227 0.000001 -0.000005 -0.000002 0.000002 -0.000001 0.000000 0.000002 -0.000001 0.000000 0.000001 -0.000000 0.000000 -0.000000 -0.000003 0.000003 -0.000000 -0.000003 0.000002 -0.000000 -0.000003 0.000003 -0.000000 -0.000003 0.000004 -8.537131 -24.966129 -1.902781 -12.517994 5.951502 62.280697 -0.189205 115.629461 0.204957 -37.746456 19.161015 -10.424482 24.612798 6.610947 -12.210701 -0.975024 -2.982421 -2.202638 0.000002 -0.000003 -0.000003 -0.338063 8.930302 13.236849 0.191791 -1.297613 21.915371 0.000001 -0.000001 0.000004 -5.051210 6.447767 31.608691 -4.040413 3.014720 97.933172 -0.000000 0.000001 0.000000 -10.851452 5.502604 37.634855 -5.870696 6.643365 87.263747 -0.000001 -0.000003 0.000001 -2.753634 5.190984 41.169529 -0.707683 11.582308 45.842898 0.000000 -0.000000 0.000001 -0.000001 -0.000001 -0.000000 -0.000002 -0.000000 0.000001 -0.000001 -0.000001 -0.000001 0.000000 0.000000 -0.000002 -0.000000 0.000000 -0.000002 0.000000 0.000000 -0.000002 0.000000 -0.000000 -0.000001 0.000002 -0.000001 0.000000 0.000002 -0.000001 0.000000 0.000002 -0.000001 0.000000 0.000002 -0.000001 0.000000 0.000002 -0.000001 0.000000 0.000002 -0.000001 0.000000 0.000002 -0.000001 0.000000 0.000000 0.000000 0.000000 -0.000000 0.000000 0.000000 
